# xmcd
#
# Track frame offsets:
#	150
#	14754
#	40496
#	58773
#	76179
#	92534
#	110340
#	126273
#	146798
#	166419
#	187972
#	201760
#	220184
#	242513
#	262219
#	280043
#	304484
#
# Disc length: 4370 seconds
#
# Revision: 0
# Processed by: cddbd v1.5.2PL0 Copyright (c) Steve Scherf et al.
# Submitted via: dBpowerAMP V4.0
#
DISCID=fb111011
DTITLE=Various Artist - levis
DYEAR=2002
DGENRE=Electronica
TTITLE0=Pepe Deluxe - Before You Leave
TTITLE1=Death in Vegas - Dirge
TTITLE2=Archive - You Make Me Feel
TTITLE3=Shaggy - Boombastic
TTITLE4=T. Rex - 20th Century Boy
TTITLE5=Tommy Bass - Lonesome Spaceboy
TTITLE6=Jestofunk - Earthquake
TTITLE7=Layo and Bushwacka! - Deep South
TTITLE8=dZihan and Kamien - Before
TTITLE9=Bossa Nostra - Before It's Too Late
TTITLE10=Monsieur Blumenberg - Sciabadabada
TTITLE11=King Kooba - Fooling Myself
TTITLE12=Various Artist - At the River
TTITLE13=Zeb - Mood Electric
TTITLE14=LTJ X-Perience - No Rhyme No Reason
TTITLE15=Various Artist - Dona Floe
TTITLE16=DATA
EXTD=
EXTT0=
EXTT1=
EXTT2=
EXTT3=
EXTT4=
EXTT5=
EXTT6=
EXTT7=
EXTT8=
EXTT9=
EXTT10=
EXTT11=
EXTT12=
EXTT13=
EXTT14=
EXTT15=
EXTT16=
PLAYORDER=
